<svg width="48" height="48" viewBox="0 0 48 48" fill="none" xmlns="http://www.w3.org/2000/svg">
<circle cx="24" cy="24" r="24" fill="#FFF8F3"/>
<path d="M23.8301 33.0601C28.9277 33.0601 33.0601 28.9277 33.0601 23.8301C33.0601 18.7325 28.9277 14.6001 23.8301 14.6001C18.7325 14.6001 14.6001 18.7325 14.6001 23.8301C14.6001 28.9277 18.7325 33.0601 23.8301 33.0601Z" fill="#D4D4D4" stroke="#D4D4D4" stroke-miterlimit="10" stroke-linecap="round" stroke-linejoin="round"/>
<path d="M25.7901 20.6899C25.7901 20.6899 24.7701 19.7899 22.9801 20.4199C21.3301 20.9899 21.4101 23.2499 23.9101 23.8499" stroke="white" stroke-width="1.2" stroke-miterlimit="10" stroke-linecap="round" stroke-linejoin="round"/>
<path d="M21.87 26.97C21.87 26.97 22.89 27.87 24.68 27.24C26.34 26.66 26.26 24.4 23.75 23.8" stroke="white" stroke-width="1.2" stroke-miterlimit="10" stroke-linecap="round" stroke-linejoin="round"/>
<path d="M24.01 20.2V18.73" stroke="white" stroke-width="1.2" stroke-miterlimit="10" stroke-linecap="round" stroke-linejoin="round"/>
<path d="M24.01 28.93V27.46" stroke="white" stroke-width="1.2" stroke-miterlimit="10" stroke-linecap="round" stroke-linejoin="round"/>
</svg>
