<svg width="48" height="48" viewBox="0 0 48 48" fill="none" xmlns="http://www.w3.org/2000/svg">
<circle cx="24" cy="24" r="24" fill="#FFF8F3"/>
<path fill-rule="evenodd" clip-rule="evenodd" d="M17.6163 15C17.3982 15 17.2053 15.1414 17.1396 15.3494L15.2719 21.2609H14.5C14.2239 21.2609 14 21.4848 14 21.7609V30.1522C14 30.4284 14.2239 30.6522 14.5 30.6522H33.5C33.7761 30.6522 34 30.4284 34 30.1522V21.7609C34 21.4848 33.7761 21.2609 33.5 21.2609H32.728L30.8603 15.3494C30.7946 15.1414 30.6017 15 30.3836 15H17.6163Z" fill="#D4D4D4"/>
<path d="M18.6512 16.4211H29.3489L30.7442 21.158H17.2559L18.6512 16.4211Z" fill="#FFF8F3"/>
<ellipse cx="19.7691" cy="25.5653" rx="1.15385" ry="1.17391" fill="#FFF8F3"/>
<ellipse cx="28.2305" cy="25.5653" rx="1.15385" ry="1.17391" fill="#FFF8F3"/>
<rect x="15.8604" y="28.3044" width="3.72093" height="4.69566" rx="1.86047" fill="#D4D4D4"/>
<rect x="28.4185" y="28.3044" width="3.72093" height="4.69566" rx="1.86047" fill="#D4D4D4"/>
</svg>
