<svg width="48" height="48" viewBox="0 0 48 48" fill="none" xmlns="http://www.w3.org/2000/svg">
<circle cx="24" cy="24" r="24" fill="#FFF8F3"/>
<path d="M24 35C29.5228 35 34 30.5228 34 25C34 19.4772 29.5228 15 24 15C18.4772 15 14 19.4772 14 25C14 30.5228 18.4772 35 24 35Z" stroke="#D4D4D4" stroke-width="2" stroke-linecap="round" stroke-linejoin="round"/>
<path d="M21.09 22.0001C21.3251 21.3317 21.7891 20.7682 22.3999 20.4092C23.0107 20.0502 23.7289 19.919 24.4271 20.0388C25.1254 20.1586 25.7588 20.5216 26.215 21.0636C26.6713 21.6056 26.921 22.2916 26.92 23.0001C26.92 25.0001 23.92 26.0001 23.92 26.0001" stroke="#D4D4D4" stroke-width="2" stroke-linecap="round" stroke-linejoin="round"/>
<path d="M24 30H24.01" stroke="#D4D4D4" stroke-width="2" stroke-linecap="round" stroke-linejoin="round"/>
</svg>
