<svg width="1259" height="340" viewBox="0 0 1259 340" fill="none" xmlns="http://www.w3.org/2000/svg">
<g clip-path="url(#clip0)">
<rect width="1259" height="340" rx="20" fill="#292B4D"/>
<path opacity="0.1" fill-rule="evenodd" clip-rule="evenodd" d="M868.638 287.532C868.638 329.412 902.588 363.362 944.468 363.362C986.348 363.362 1020.3 329.412 1020.3 287.532C1020.3 245.652 986.348 211.702 944.468 211.702C902.588 211.702 868.638 245.652 868.638 287.532ZM944.468 394C885.667 394 838 346.333 838 287.532C838 228.731 885.667 181.064 944.468 181.064C1003.27 181.064 1050.94 228.731 1050.94 287.532C1050.94 346.333 1003.27 394 944.468 394Z" fill="url(#paint0_linear)"/>
<path opacity="0.1" fill-rule="evenodd" clip-rule="evenodd" d="M1127.51 -7.3617C1099.17 -7.3617 1076.19 15.6147 1076.19 43.9574C1076.19 72.3002 1099.17 95.2766 1127.51 95.2766C1155.85 95.2766 1178.83 72.3002 1178.83 43.9574C1178.83 15.6147 1155.85 -7.3617 1127.51 -7.3617ZM1045.55 43.9574C1045.55 -1.3064 1082.25 -38 1127.51 -38C1172.77 -38 1209.47 -1.3064 1209.47 43.9574C1209.47 89.2213 1172.77 125.915 1127.51 125.915C1082.25 125.915 1045.55 89.2213 1045.55 43.9574Z" fill="url(#paint1_linear)"/>
<path opacity="0.2" fill-rule="evenodd" clip-rule="evenodd" d="M1088.06 43.9574C1088.06 22.1715 1105.72 4.51059 1127.51 4.51059C1149.3 4.51059 1166.96 22.1715 1166.96 43.9574C1166.96 65.7433 1149.3 83.4042 1127.51 83.4042C1105.72 83.4042 1088.06 65.7433 1088.06 43.9574ZM1127.51 3.74463C1105.3 3.74463 1087.3 21.7485 1087.3 43.9574C1087.3 66.1663 1105.3 84.1702 1127.51 84.1702C1149.72 84.1702 1167.72 66.1663 1167.72 43.9574C1167.72 21.7485 1149.72 3.74463 1127.51 3.74463Z" fill="url(#paint2_linear)"/>
<path d="M163.1 225.1C162.713 224.287 162.153 223.66 161.42 223.22C160.687 222.767 159.833 222.54 158.86 222.54C157.887 222.54 157.007 222.767 156.22 223.22C155.447 223.66 154.833 224.3 154.38 225.14C153.94 225.967 153.72 226.927 153.72 228.02C153.72 229.113 153.94 230.073 154.38 230.9C154.833 231.727 155.447 232.367 156.22 232.82C157.007 233.26 157.887 233.48 158.86 233.48C160.22 233.48 161.34 233.073 162.22 232.26C163.1 231.447 163.613 230.347 163.76 228.96H158.2V227.48H165.7V228.88C165.593 230.027 165.233 231.08 164.62 232.04C164.007 232.987 163.2 233.74 162.2 234.3C161.2 234.847 160.087 235.12 158.86 235.12C157.567 235.12 156.387 234.82 155.32 234.22C154.253 233.607 153.407 232.76 152.78 231.68C152.167 230.6 151.86 229.38 151.86 228.02C151.86 226.66 152.167 225.44 152.78 224.36C153.407 223.267 154.253 222.42 155.32 221.82C156.387 221.207 157.567 220.9 158.86 220.9C160.34 220.9 161.647 221.267 162.78 222C163.927 222.733 164.76 223.767 165.28 225.1H163.1ZM178.106 229.1C178.106 229.447 178.086 229.813 178.046 230.2H169.286C169.353 231.28 169.72 232.127 170.386 232.74C171.066 233.34 171.886 233.64 172.846 233.64C173.633 233.64 174.286 233.46 174.806 233.1C175.34 232.727 175.713 232.233 175.926 231.62H177.886C177.593 232.673 177.006 233.533 176.126 234.2C175.246 234.853 174.153 235.18 172.846 235.18C171.806 235.18 170.873 234.947 170.046 234.48C169.233 234.013 168.593 233.353 168.126 232.5C167.66 231.633 167.426 230.633 167.426 229.5C167.426 228.367 167.653 227.373 168.106 226.52C168.56 225.667 169.193 225.013 170.006 224.56C170.833 224.093 171.78 223.86 172.846 223.86C173.886 223.86 174.806 224.087 175.606 224.54C176.406 224.993 177.02 225.62 177.446 226.42C177.886 227.207 178.106 228.1 178.106 229.1ZM176.226 228.72C176.226 228.027 176.073 227.433 175.766 226.94C175.46 226.433 175.04 226.053 174.506 225.8C173.986 225.533 173.406 225.4 172.766 225.4C171.846 225.4 171.06 225.693 170.406 226.28C169.766 226.867 169.4 227.68 169.306 228.72H176.226ZM182.729 225.54V232C182.729 232.533 182.842 232.913 183.069 233.14C183.295 233.353 183.689 233.46 184.249 233.46H185.589V235H183.949C182.935 235 182.175 234.767 181.669 234.3C181.162 233.833 180.909 233.067 180.909 232V225.54H179.489V224.04H180.909V221.28H182.729V224.04H185.589V225.54H182.729ZM197.546 235.14C196.626 235.14 195.799 234.98 195.066 234.66C194.346 234.327 193.779 233.873 193.366 233.3C192.953 232.713 192.739 232.04 192.726 231.28H194.666C194.733 231.933 194.999 232.487 195.466 232.94C195.946 233.38 196.639 233.6 197.546 233.6C198.413 233.6 199.093 233.387 199.586 232.96C200.093 232.52 200.346 231.96 200.346 231.28C200.346 230.747 200.199 230.313 199.906 229.98C199.613 229.647 199.246 229.393 198.806 229.22C198.366 229.047 197.773 228.86 197.026 228.66C196.106 228.42 195.366 228.18 194.806 227.94C194.259 227.7 193.786 227.327 193.386 226.82C192.999 226.3 192.806 225.607 192.806 224.74C192.806 223.98 192.999 223.307 193.386 222.72C193.773 222.133 194.313 221.68 195.006 221.36C195.713 221.04 196.519 220.88 197.426 220.88C198.733 220.88 199.799 221.207 200.626 221.86C201.466 222.513 201.939 223.38 202.046 224.46H200.046C199.979 223.927 199.699 223.46 199.206 223.06C198.713 222.647 198.059 222.44 197.246 222.44C196.486 222.44 195.866 222.64 195.386 223.04C194.906 223.427 194.666 223.973 194.666 224.68C194.666 225.187 194.806 225.6 195.086 225.92C195.379 226.24 195.733 226.487 196.146 226.66C196.573 226.82 197.166 227.007 197.926 227.22C198.846 227.473 199.586 227.727 200.146 227.98C200.706 228.22 201.186 228.6 201.586 229.12C201.986 229.627 202.186 230.32 202.186 231.2C202.186 231.88 202.006 232.52 201.646 233.12C201.286 233.72 200.753 234.207 200.046 234.58C199.339 234.953 198.506 235.14 197.546 235.14ZM207.084 225.54V232C207.084 232.533 207.198 232.913 207.424 233.14C207.651 233.353 208.044 233.46 208.604 233.46H209.944V235H208.304C207.291 235 206.531 234.767 206.024 234.3C205.518 233.833 205.264 233.067 205.264 232V225.54H203.844V224.04H205.264V221.28H207.084V224.04H209.944V225.54H207.084ZM211.469 229.48C211.469 228.36 211.696 227.38 212.149 226.54C212.603 225.687 213.223 225.027 214.009 224.56C214.809 224.093 215.696 223.86 216.669 223.86C217.629 223.86 218.463 224.067 219.169 224.48C219.876 224.893 220.403 225.413 220.749 226.04V224.04H222.589V235H220.749V232.96C220.389 233.6 219.849 234.133 219.129 234.56C218.423 234.973 217.596 235.18 216.649 235.18C215.676 235.18 214.796 234.94 214.009 234.46C213.223 233.98 212.603 233.307 212.149 232.44C211.696 231.573 211.469 230.587 211.469 229.48ZM220.749 229.5C220.749 228.673 220.583 227.953 220.249 227.34C219.916 226.727 219.463 226.26 218.889 225.94C218.329 225.607 217.709 225.44 217.029 225.44C216.349 225.44 215.729 225.6 215.169 225.92C214.609 226.24 214.163 226.707 213.829 227.32C213.496 227.933 213.329 228.653 213.329 229.48C213.329 230.32 213.496 231.053 213.829 231.68C214.163 232.293 214.609 232.767 215.169 233.1C215.729 233.42 216.349 233.58 217.029 233.58C217.709 233.58 218.329 233.42 218.889 233.1C219.463 232.767 219.916 232.293 220.249 231.68C220.583 231.053 220.749 230.327 220.749 229.5ZM227.485 225.82C227.805 225.193 228.258 224.707 228.845 224.36C229.445 224.013 230.172 223.84 231.025 223.84V225.72H230.545C228.505 225.72 227.485 226.827 227.485 229.04V235H225.665V224.04H227.485V225.82ZM235.346 225.54V232C235.346 232.533 235.459 232.913 235.686 233.14C235.913 233.353 236.306 233.46 236.866 233.46H238.206V235H236.566C235.553 235 234.793 234.767 234.286 234.3C233.779 233.833 233.526 233.067 233.526 232V225.54H232.106V224.04H233.526V221.28H235.346V224.04H238.206V225.54H235.346ZM250.411 229.1C250.411 229.447 250.391 229.813 250.351 230.2H241.591C241.658 231.28 242.024 232.127 242.691 232.74C243.371 233.34 244.191 233.64 245.151 233.64C245.938 233.64 246.591 233.46 247.111 233.1C247.644 232.727 248.018 232.233 248.231 231.62H250.191C249.898 232.673 249.311 233.533 248.431 234.2C247.551 234.853 246.458 235.18 245.151 235.18C244.111 235.18 243.178 234.947 242.351 234.48C241.538 234.013 240.898 233.353 240.431 232.5C239.964 231.633 239.731 230.633 239.731 229.5C239.731 228.367 239.958 227.373 240.411 226.52C240.864 225.667 241.498 225.013 242.311 224.56C243.138 224.093 244.084 223.86 245.151 223.86C246.191 223.86 247.111 224.087 247.911 224.54C248.711 224.993 249.324 225.62 249.751 226.42C250.191 227.207 250.411 228.1 250.411 229.1ZM248.531 228.72C248.531 228.027 248.378 227.433 248.071 226.94C247.764 226.433 247.344 226.053 246.811 225.8C246.291 225.533 245.711 225.4 245.071 225.4C244.151 225.4 243.364 225.693 242.711 226.28C242.071 226.867 241.704 227.68 241.611 228.72H248.531ZM252.133 229.48C252.133 228.36 252.36 227.38 252.813 226.54C253.267 225.687 253.887 225.027 254.673 224.56C255.473 224.093 256.367 223.86 257.353 223.86C258.207 223.86 259 224.06 259.733 224.46C260.467 224.847 261.027 225.36 261.413 226V220.2H263.253V235H261.413V232.94C261.053 233.593 260.52 234.133 259.813 234.56C259.107 234.973 258.28 235.18 257.333 235.18C256.36 235.18 255.473 234.94 254.673 234.46C253.887 233.98 253.267 233.307 252.813 232.44C252.36 231.573 252.133 230.587 252.133 229.48ZM261.413 229.5C261.413 228.673 261.247 227.953 260.913 227.34C260.58 226.727 260.127 226.26 259.553 225.94C258.993 225.607 258.373 225.44 257.693 225.44C257.013 225.44 256.393 225.6 255.833 225.92C255.273 226.24 254.827 226.707 254.493 227.32C254.16 227.933 253.993 228.653 253.993 229.48C253.993 230.32 254.16 231.053 254.493 231.68C254.827 232.293 255.273 232.767 255.833 233.1C256.393 233.42 257.013 233.58 257.693 233.58C258.373 233.58 258.993 233.42 259.553 233.1C260.127 232.767 260.58 232.293 260.913 231.68C261.247 231.053 261.413 230.327 261.413 229.5Z" fill="#292B4D"/>
<path opacity="0.1" fill-rule="evenodd" clip-rule="evenodd" d="M496.638 397.532C496.638 439.412 530.588 473.362 572.468 473.362C614.348 473.362 648.298 439.412 648.298 397.532C648.298 355.652 614.348 321.702 572.468 321.702C530.588 321.702 496.638 355.652 496.638 397.532ZM572.468 504C513.667 504 466 456.333 466 397.532C466 338.731 513.667 291.064 572.468 291.064C631.269 291.064 678.936 338.731 678.936 397.532C678.936 456.333 631.269 504 572.468 504Z" fill="url(#paint3_linear)"/>
<path opacity="0.1" fill-rule="evenodd" clip-rule="evenodd" d="M628.957 -29.3617C600.615 -29.3617 577.638 -6.38534 577.638 21.9574C577.638 50.3002 600.615 73.2766 628.957 73.2766C657.3 73.2766 680.277 50.3002 680.277 21.9574C680.277 -6.38534 657.3 -29.3617 628.957 -29.3617ZM547 21.9574C547 -23.3064 583.694 -60 628.957 -60C674.221 -60 710.915 -23.3064 710.915 21.9574C710.915 67.2213 674.221 103.915 628.957 103.915C583.694 103.915 547 67.2213 547 21.9574Z" fill="url(#paint4_linear)"/>
<path opacity="0.2" fill-rule="evenodd" clip-rule="evenodd" d="M639.511 21.9574C639.511 0.171522 657.172 -17.4894 678.957 -17.4894C700.743 -17.4894 718.404 0.171526 718.404 21.9574C718.404 43.7433 700.743 61.4042 678.957 61.4042C657.172 61.4042 639.511 43.7433 639.511 21.9574ZM678.957 -18.2554C656.748 -18.2554 638.745 -0.251503 638.745 21.9574C638.745 44.1663 656.748 62.1702 678.957 62.1702C701.166 62.1702 719.17 44.1663 719.17 21.9574C719.17 -0.251499 701.166 -18.2554 678.957 -18.2554Z" fill="url(#paint5_linear)"/>
</g>
<defs>
<linearGradient id="paint0_linear" x1="853.319" y1="287.532" x2="1035.62" y2="287.532" gradientUnits="userSpaceOnUse">
<stop stop-color="white"/>
<stop offset="1" stop-color="white" stop-opacity="0"/>
</linearGradient>
<linearGradient id="paint1_linear" x1="1127.51" y1="-22.6809" x2="1127.51" y2="110.596" gradientUnits="userSpaceOnUse">
<stop stop-color="white"/>
<stop offset="1" stop-color="white" stop-opacity="0"/>
</linearGradient>
<linearGradient id="paint2_linear" x1="1087.68" y1="43.9574" x2="1167.34" y2="43.9574" gradientUnits="userSpaceOnUse">
<stop stop-color="white"/>
<stop offset="1" stop-color="white" stop-opacity="0"/>
</linearGradient>
<linearGradient id="paint3_linear" x1="481.319" y1="397.532" x2="663.617" y2="397.532" gradientUnits="userSpaceOnUse">
<stop stop-color="white"/>
<stop offset="1" stop-color="white" stop-opacity="0"/>
</linearGradient>
<linearGradient id="paint4_linear" x1="628.957" y1="-44.6809" x2="628.957" y2="88.5957" gradientUnits="userSpaceOnUse">
<stop stop-color="white"/>
<stop offset="1" stop-color="white" stop-opacity="0"/>
</linearGradient>
<linearGradient id="paint5_linear" x1="639.128" y1="21.9574" x2="718.787" y2="21.9574" gradientUnits="userSpaceOnUse">
<stop stop-color="white"/>
<stop offset="1" stop-color="white" stop-opacity="0"/>
</linearGradient>
<clipPath id="clip0">
<rect width="1259" height="340" rx="20" fill="white"/>
</clipPath>
</defs>
</svg>
